<svg width="55" height="703" viewBox="0 0 55 703" fill="none" xmlns="http://www.w3.org/2000/svg">
<path d="M5.5 702.333C8.44552 702.333 10.8333 699.946 10.8333 697C10.8333 694.054 8.44552 691.667 5.5 691.667C2.55448 691.667 0.166667 694.054 0.166667 697C0.166667 699.946 2.55448 702.333 5.5 702.333ZM6.5 697L6.50003 4.37113e-08L4.50003 -4.37113e-08L4.5 697L6.5 697Z" fill="#4D4D4D"/>
<path d="M54.3333 670C54.3333 667.054 51.9455 664.667 49 664.667C46.0545 664.667 43.6667 667.054 43.6667 670C43.6667 672.946 46.0545 675.333 49 675.333C51.9455 675.333 54.3333 672.946 54.3333 670ZM49 669H6V671H49V669Z" fill="#4D4D4D"/>
<path d="M43.8647 650.5C43.8647 647.554 41.4769 645.167 38.5314 645.167C35.5859 645.167 33.198 647.554 33.198 650.5C33.198 653.446 35.5859 655.833 38.5314 655.833C41.4769 655.833 43.8647 653.446 43.8647 650.5ZM38.5314 628H39.5314V627H38.5314V628ZM39.5314 650.5L39.5314 628H37.5314L37.5314 650.5H39.5314ZM38.5314 627H5V629H38.5314V627Z" fill="#4D4D4D"/>
</svg>
